<svg width="218" height="295" viewBox="0 0 218 295" fill="none" xmlns="http://www.w3.org/2000/svg">
<path d="M73.7001 94.1999C69.2001 89.6999 65.2001 85.4999 61.2001 81.4999C59.1001 79.3999 60.8001 75.7999 63.8001 76.0999C66.0001 76.2999 79.8001 85.9999 94.0001 87.2999C100.8 87.8999 107.6 86.4999 113.4 81.2999C115.4 79.4999 118 78.5999 120.6 78.9999C127.2 79.7999 136.5 83.7999 142 87.3999C151.1 93.3999 146.4 107.6 142.2 108.5C127 112.1 111.7 115.5 96.5001 119.3C79.1001 123.6 61.7001 128.1 44.5001 132.9C39.1001 134.4 33.9001 137.7 28.6001 139.8C28.3001 139.9 28.0001 140 27.7001 140C25.7001 140.1 24.1001 138.2 24.4001 136.3C24.5001 135.6 24.7001 134.9 25.0001 134.4C32.7001 119.1 32.6001 119.2 26.5001 103.1C25.5001 100.5 24.7001 96.0999 26.0001 93.7999C28.9001 88.7999 32.1001 88.6999 39.7001 94.5999C44.6001 98.3999 56.2001 108.3 60.6001 106C64.6001 103.9 68.6001 101.7 73.1001 99.2999C74.8001 98.2999 75.2001 95.6999 73.7001 94.1999Z" fill="black"/>
<path d="M119.7 150.8C119.7 152.6 121.6 153.8 123.3 153.1C126.2 151.7 129.2 150.3 131.9 148.6C147.2 139.1 158.9 126.6 161.3 107.9C164.1 86.5 154.4 70.3 137.8 58.1C105.5 34.3 58.1 33.9 25.8 57.6C1.70002 75.4 2.80002 95.8 7.00002 122.7C8.10002 129.7 12.1 135.9 14.8 142.8C14 141.7 13.2 140.8 12.6 139.8C-12.7 96.2 2.40002 42.5 44.1 16.6C100.3 -18.2 178.2 3.79998 207.4 62.9C220.3 88.9 221 111.6 209 138C206.5 143.4 192.1 167.2 171.4 181.2C149.1 196.4 121.1 206.4 115.9 207.6C112.6 208.4 111.6 209.9 110.9 213.2C108 226.3 105.7 239.7 101.2 252.3C95.7 267.5 86.8 281.1 71.5 288.5C55.1 296.5 32 297.7 18.7 279.7C13.5 272.7 11.3 266.2 13 258.3C13.7 254.8 17.8 247.8 21 252.1C21.4 252.7 21.5 253.4 21.3 254.1C21.2 254.2 21.2 254.4 21.1 254.5C15.9 262.4 17.6 271.9 25.5 276.3C31.8 279.9 38.1 278 44.1 274.9C50.9 271.3 54 264.8 56.7 258.1C61.5 246 63.2 233.3 63.3 220.4C63.4 196.4 63.4 172.4 63.3 148.4C63.3 138.2 63.2 138.3 73.2 135.6C84.6 132.6 96 129.5 107.4 126.6C109.9 125.9 112.4 125.3 115 125C118.7 124.6 119.9 126.7 119.8 130.2C119.6 136.7 119.6 143.4 119.7 150.8Z" fill="black"/>
</svg>
