<svg width="24" height="24" viewBox="0 0 24 24" fill="none" xmlns="http://www.w3.org/2000/svg">
<path d="M21 6C21 3.79 19.21 2 17 2H7C4.79 2 3 3.79 3 6V8H2V12H3V18C3 18.74 3.41 19.38 4 19.72V21C4 21.55 4.45 22 5 22H6C6.55 22 7 21.55 7 21V20H17V21C17 21.55 17.45 22 18 22H19C19.55 22 20 21.55 20 21V19.72C20.3023 19.5455 20.5536 19.2949 20.7291 18.9932C20.9045 18.6914 20.9979 18.349 21 18V12H22V8H21V6ZM19 18H5V13H19V18ZM5 7H11V11H5V7ZM13 7H19V11H13V7ZM7 4H17C17.74 4 18.38 4.41 18.72 5H5.28C5.45451 4.69772 5.70509 4.44638 6.00683 4.27095C6.30857 4.09552 6.65097 4.00211 7 4Z" fill="#334EAC"/>
<path d="M7.5 14C7.10218 14 6.72064 14.158 6.43934 14.4393C6.15804 14.7206 6 15.1022 6 15.5C6 15.8978 6.15804 16.2794 6.43934 16.5607C6.72064 16.842 7.10218 17 7.5 17C7.89782 17 8.27936 16.842 8.56066 16.5607C8.84196 16.2794 9 15.8978 9 15.5C9 15.1022 8.84196 14.7206 8.56066 14.4393C8.27936 14.158 7.89782 14 7.5 14ZM16.5 14C16.1022 14 15.7206 14.158 15.4393 14.4393C15.158 14.7206 15 15.1022 15 15.5C15 15.8978 15.158 16.2794 15.4393 16.5607C15.7206 16.842 16.1022 17 16.5 17C16.8978 17 17.2794 16.842 17.5607 16.5607C17.842 16.2794 18 15.8978 18 15.5C18 15.1022 17.842 14.7206 17.5607 14.4393C17.2794 14.158 16.8978 14 16.5 14Z" fill="#334EAC"/>
</svg>
