<svg width="24" height="24" viewBox="0 0 24 24" fill="none" xmlns="http://www.w3.org/2000/svg">
<path d="M19 4H17V2H15V4H9V2H7V4H5C3.9 4 3 4.9 3 6V20C3 21.1 3.9 22 5 22H19C20.1 22 21 21.1 21 20V6C21 4.9 20.1 4 19 4ZM5 20V8H19V6V20H5Z" fill="#7096D1"/>
<path d="M7 11H9V13H7V11Z" fill="#7096D1"/>
<path d="M11 11H13V13H11V11Z" fill="#7096D1"/>
<path d="M15 11H17V13H15V11Z" fill="#7096D1"/>
<path d="M7 15H9V17H7V15Z" fill="#7096D1"/>
<path d="M11 15H13V17H11V15Z" fill="#7096D1"/>
<path d="M15 15H17V17H15V15Z" fill="#7096D1"/>
</svg>
