<svg width="24" height="24" viewBox="0 0 24 24" fill="none" xmlns="http://www.w3.org/2000/svg">
<path d="M12 22C6.49 22 2 17.51 2 12C2 6.49 6.49 2 12 2C17.51 2 22 6.49 22 12C22 17.51 17.51 22 12 22ZM12 4C7.59 4 4 7.59 4 12C4 16.41 7.59 20 12 20C16.41 20 20 16.41 20 12C20 7.59 16.41 4 12 4Z" fill="black"/>
<path d="M10 16C9.74004 16 9.49004 15.9 9.29004 15.71L6.29004 12.71L7.70004 11.3L9.99004 13.59L15.28 8.29999L16.69 9.70999L10.69 15.71C10.49 15.91 10.24 16 9.98004 16H10Z" fill="black"/>
</svg>
