<svg width="30" height="30" viewBox="0 0 30 30" fill="none" xmlns="http://www.w3.org/2000/svg">
<path d="M21.1371 2.8627C20.6496 2.3752 19.8621 2.3752 19.3746 2.8627L17.2621 4.9752L15.8996 3.6127C15.4246 3.1377 14.5996 3.1377 14.1371 3.6127L11.1371 6.6127C10.6496 7.1002 10.6496 7.8877 11.1371 8.3752L15.4996 12.7377L12.7621 15.4752L8.39961 11.1127C7.92461 10.6377 7.09961 10.6377 6.63711 11.1127L3.63711 14.1127C3.14961 14.6002 3.14961 15.3877 3.63711 15.8752L4.99961 17.2377L2.88711 19.3502C2.39961 19.8377 2.39961 20.6252 2.88711 21.1127L8.88711 27.1127C9.13711 27.3627 9.44961 27.4752 9.77461 27.4752C10.0996 27.4752 10.4121 27.3502 10.6621 27.1127L12.7746 25.0002L14.1371 26.3627C14.3746 26.6002 14.6871 26.7252 15.0246 26.7252C15.3621 26.7252 15.6746 26.5877 15.9121 26.3627L18.9121 23.3627C19.3996 22.8752 19.3996 22.0877 18.9121 21.6002L14.5496 17.2377L17.2871 14.5002L21.6496 18.8627C21.8871 19.1002 22.1996 19.2252 22.5371 19.2252C22.8746 19.2252 23.1871 19.0877 23.4246 18.8627L26.4246 15.8627C26.9121 15.3752 26.9121 14.5877 26.4246 14.1002L25.0621 12.7377L27.1746 10.6252C27.6621 10.1377 27.6621 9.3502 27.1746 8.8627L21.1746 2.8627H21.1371ZM9.74961 24.4877L5.51211 20.2502L6.74961 19.0127L10.9871 23.2502L9.74961 24.4877ZM14.9996 23.7377L13.6371 22.3752L7.63711 16.3752L6.27461 15.0127L7.51211 13.7752L16.2496 22.5127L15.0121 23.7502L14.9996 23.7377ZM22.4996 16.2377L13.7621 7.5002L14.9996 6.2627L16.3621 7.6252L22.3621 13.6252L23.7246 14.9877L22.4871 16.2252L22.4996 16.2377ZM19.0121 6.7502L20.2496 5.5127L24.4871 9.7502L23.2496 10.9877L19.0121 6.7502Z" fill="#081F5C"/>
</svg>
