<svg width="32" height="32" viewBox="0 0 32 32" fill="none" xmlns="http://www.w3.org/2000/svg">
<path d="M23.6127 9.72L19.6127 5.72C19.4894 5.5964 19.3428 5.49834 19.1815 5.43143C19.0202 5.36452 18.8473 5.33008 18.6727 5.33008C18.4981 5.33008 18.3252 5.36452 18.1639 5.43143C18.0026 5.49834 17.8561 5.5964 17.7327 5.72L3.0527 20.3867C2.92913 20.5113 2.83136 20.659 2.76501 20.8215C2.69866 20.9839 2.66502 21.1579 2.66604 21.3333V25.3333C2.66604 26.0667 3.26604 26.6667 3.99937 26.6667H7.99937C8.35937 26.6667 8.6927 26.52 8.94604 26.28L23.6127 11.6133C23.7363 11.49 23.8344 11.3435 23.9013 11.1822C23.9682 11.0209 24.0026 10.848 24.0026 10.6733C24.0026 10.4987 23.9682 10.3258 23.9013 10.1645C23.8344 10.0032 23.7363 9.85669 23.6127 9.73334V9.72ZM7.4527 24H5.3327V21.88L15.3327 11.88L17.4527 14L7.4527 24ZM19.3327 12.12L17.2127 10L18.666 8.54667L20.786 10.6667L19.3327 12.12ZM14.666 24H29.3327V26.6667H14.666V24Z" fill="#7096D1"/>
</svg>
