<svg width="432" height="145" viewBox="0 0 432 145" fill="none" xmlns="http://www.w3.org/2000/svg">
<path d="M195.794 140.528V128.793C195.794 128.201 196.287 127.659 196.878 127.61C197.125 127.61 197.371 127.61 197.568 127.61C199.984 127.708 201.019 126.328 201.068 124.158C201.167 122.087 201.117 120.066 201.068 117.995C201.068 114.741 200.329 114.001 197.026 113.754C196.928 113.754 196.878 113.754 196.78 113.754C196.188 113.705 195.695 113.212 195.695 112.571V101.033C195.695 100.392 196.238 99.8497 196.878 99.8497H216.842C217.532 99.8497 218.074 100.441 218.025 101.082C217.828 103.893 217.63 106.654 217.433 109.366C217.384 109.761 217.088 110.106 217.384 110.352C217.384 110.352 218.173 109.81 218.222 109.514C219.602 101.773 225.567 98.3705 233.01 98.0254C236.312 97.8775 239.812 98.2719 242.918 99.3074C249.276 101.428 251.593 106.654 251.741 112.965C251.839 116.318 251.741 119.721 251.741 123.073C251.741 127.018 252.086 127.314 256.079 127.56C256.67 127.61 257.114 128.103 257.114 128.645V140.479C257.114 141.12 256.572 141.662 255.931 141.662H232.073C231.482 141.662 230.939 141.169 230.89 140.578C230.841 140.085 230.841 139.591 230.841 139.098C230.841 131.801 230.841 124.454 230.792 117.157C230.792 115.382 230.447 113.36 228.426 113.064C226.897 112.818 224.876 113.113 223.644 113.952C222.609 114.691 222.165 116.614 221.968 118.044C221.672 119.819 221.87 121.644 221.919 123.468C221.968 126.821 222.56 127.413 225.961 127.511C226.059 127.511 226.158 127.511 226.257 127.511C226.848 127.56 227.292 128.054 227.292 128.645V140.38C227.292 141.021 226.75 141.564 226.109 141.564H196.829C196.336 141.712 195.794 141.169 195.794 140.528Z" fill="#EEF1F6"/>
<path d="M188.408 124.258C189.443 124.258 190.331 125.047 190.479 126.033C191.76 134.514 188.852 140.826 182.789 142.65C175.296 144.918 168.396 143.242 164.649 138.459C163.811 137.374 162.135 137.374 161.347 138.459C159.178 141.417 155.826 142.551 152.277 143.094C147.841 143.784 143.256 143.932 138.968 142.009C135.123 140.283 133.349 137.226 133.053 133.084C132.757 128.992 134.433 125.885 138.031 124.258C141.531 122.73 145.277 121.842 148.925 120.61C151.784 119.623 154.742 118.835 157.403 117.454C160.657 115.827 161.79 112.868 161.051 109.663C160.361 106.705 158.241 105.176 154.446 104.881C150.847 104.585 147.545 105.571 144.932 107.888C145.869 107.642 146.312 107.543 146.805 107.395C149.714 106.409 152.622 107.297 153.904 109.565C155.382 112.178 154.643 115.975 152.277 117.848C148.728 120.708 141.778 120.412 138.869 117.257C135.715 113.854 136.01 107.938 139.559 104.24C142.566 101.133 146.46 99.6047 150.65 98.8157C158.093 97.3365 165.487 97.4844 172.733 99.9991C179.289 102.267 182.099 106.458 182.099 113.411C182.099 118.243 182.099 123.124 182.099 127.956C182.099 129.337 182.099 130.767 182.395 132.098C182.542 132.788 183.43 133.775 184.021 133.775C184.662 133.775 185.648 132.986 185.894 132.295C186.289 131.26 186.338 130.077 186.387 128.893C186.437 128.006 186.437 127.167 186.437 126.231C186.289 125.195 187.225 124.258 188.408 124.258ZM161.15 125.787C161.15 124.16 159.326 123.124 157.946 124.061C156.812 124.801 155.826 125.54 154.988 126.428C154.101 127.414 153.904 128.4 154.101 129.83C154.199 130.52 155.826 132.295 156.861 132.493C158.685 132.887 159.967 131.753 160.657 130.126C160.903 129.583 161.15 126.724 161.15 125.787Z" fill="#EEF1F6"/>
<path d="M375.466 99.6543C375.663 99.0133 376.205 98.6189 376.797 98.6189H383.944C384.733 98.6189 385.324 99.2599 385.324 99.9995V112.326C385.324 113.115 384.683 113.707 383.944 113.707C381.331 113.707 378.768 113.756 376.205 113.658C375.613 113.608 374.923 112.869 374.48 112.277C372.311 109.121 369.501 107.198 365.558 107.938C364.572 108.135 363.34 109.171 363.093 110.058C362.896 110.748 363.98 112.277 364.818 112.573C367.825 113.658 370.931 114.348 373.987 115.285C375.909 115.876 377.881 116.517 379.705 117.454C384.733 120.018 387.099 124.308 386.852 129.929C386.606 135.501 383.5 139.1 378.472 140.925C370.536 143.834 362.6 143.686 354.763 140.53C354.615 140.481 354.418 140.382 354.27 140.333C353.58 140.037 352.791 140.333 352.495 141.023C352.002 142.207 350.573 142.009 349.242 142.009C347.418 141.96 345.594 142.009 343.672 142.009C342.883 142.009 342.292 141.368 342.292 140.629V128.302C342.292 127.513 342.933 126.921 343.672 126.921C346.432 126.921 349.242 126.872 352.002 127.02C352.545 127.069 353.136 128.055 353.58 128.696C355.847 131.852 358.706 133.874 362.748 133.085C363.685 132.887 365.065 131.852 365.114 131.162C365.163 130.225 364.276 128.696 363.438 128.351C360.185 127.118 356.734 126.33 353.432 125.196C351.509 124.555 349.538 123.815 347.813 122.779C339.433 117.651 339.581 105.768 348.256 101.134C356.242 96.8438 364.621 97.2383 372.952 100.394C373.149 100.493 373.346 100.542 373.543 100.64C374.381 100.887 375.268 100.443 375.466 99.6543Z" fill="#EEF1F6"/>
<path d="M419.39 85.6006C419.538 85.6006 419.686 85.7485 419.686 85.8964C419.686 89.9396 419.785 93.687 419.637 97.4343C419.587 99.308 420.278 99.8504 422.052 99.7518C424.911 99.6531 427.77 99.7024 430.777 99.7024C430.925 99.7024 431.073 99.8504 431.073 99.9983V113.508C431.073 113.656 430.925 113.804 430.777 113.804H420.278C420.13 113.804 419.982 113.952 419.982 114.1C419.982 119.031 419.883 123.764 420.031 128.449C420.08 129.977 420.918 131.013 422.249 131.358C424.517 131.949 426.784 130.322 427.031 127.956C427.277 125.737 427.277 123.222 427.376 120.806C427.376 120.362 427.77 120.066 428.164 120.066H430.678C431.122 120.066 431.467 120.412 431.467 120.855C431.615 126.131 431.911 131.703 429.397 136.634C427.425 140.529 423.974 142.698 419.834 143.191C416.137 143.635 412.243 143.635 408.644 142.994C402.434 141.86 399.328 138.064 398.885 131.752C398.54 126.871 398.638 121.891 398.54 117.009C398.54 116.122 398.54 115.234 398.54 114.199C398.54 114.051 398.392 113.903 398.244 113.903H392.772C392.624 113.903 392.477 113.755 392.477 113.607V107.641V101.921C392.477 101.773 392.575 101.675 392.674 101.675C394.35 101.182 396.026 100.886 397.455 100.196C402.582 97.6808 404.997 93.2432 405.588 87.8194C405.786 85.8964 406.426 85.5513 408.152 85.6006C411.799 85.6499 415.398 85.6006 419.39 85.6006Z" fill="#EEF1F6"/>
<path d="M94.8555 88.3131C94.8555 86.8339 96.0385 85.6505 97.5173 85.6505C102.545 85.6505 107.524 85.6505 112.551 85.6505C114.572 85.6505 116.593 85.6505 118.664 85.6505C120.143 85.6505 121.326 86.8339 121.326 88.3131V88.3624C121.326 99.6045 121.326 110.847 121.326 122.138C121.326 125.935 121.671 127.019 124.431 127.512C125.713 127.759 126.6 128.844 126.6 130.126V139.1C126.6 140.579 125.417 141.762 123.938 141.762H97.5666C96.0878 141.762 94.9048 140.579 94.9048 139.1V130.076C94.9048 128.893 95.6934 127.808 96.8765 127.512C99.9326 126.724 100.179 125.737 100.179 121.3C100.179 116.27 100.179 111.29 100.179 106.261C100.179 101.774 99.9819 100.886 96.7779 99.9003C95.6934 99.5552 94.9048 98.569 94.9048 97.3857L94.8555 88.3131Z" fill="#EEF1F6"/>
<path d="M263.431 130.077C263.431 128.795 264.318 127.71 265.55 127.464C268.113 126.921 268.705 125.639 268.705 122.188C268.705 116.912 268.705 111.685 268.705 106.41C268.705 101.676 268.606 100.887 265.205 99.8023C264.121 99.4572 263.332 98.4217 263.332 97.2383V88.363C263.332 86.8838 264.515 85.7004 265.994 85.7004H287.14C288.619 85.7004 289.802 86.8838 289.802 88.363C289.802 99.5558 289.802 110.699 289.802 121.892C289.802 125.886 290.098 126.921 292.908 127.464C294.189 127.71 295.126 128.795 295.126 130.077V139.051C295.126 140.53 293.943 141.714 292.464 141.714H266.092C264.614 141.714 263.431 140.53 263.431 139.051V130.077Z" fill="#EEF1F6"/>
<path d="M303.402 139.15V130.028C303.402 128.845 304.191 127.809 305.374 127.513C308.578 126.725 308.825 125.738 308.825 121.251C308.825 120.857 308.825 120.413 308.825 120.019C308.825 116.025 308.332 114.841 305.325 114.003C304.24 113.707 303.452 112.672 303.452 111.538V102.515C303.452 101.085 304.585 99.9507 306.015 99.9507H327.309C328.739 99.9507 329.872 101.134 329.872 102.515C329.872 105.424 329.872 108.333 329.872 111.242C329.872 114.841 329.872 118.49 329.872 122.09C329.872 125.837 330.316 126.971 333.027 127.513C334.259 127.76 335.147 128.795 335.147 130.077V139.199C335.147 140.629 334.013 141.763 332.583 141.763H306.015C304.585 141.763 303.402 140.58 303.402 139.15Z" fill="#EEF1F6"/>
<path d="M37.1667 46.4516C34.9486 44.2328 32.9769 42.1619 31.0052 40.1896C29.97 39.1541 30.808 37.3791 32.2868 37.527C33.3712 37.6256 40.1736 42.4084 47.1731 43.0494C50.525 43.3453 53.8769 42.655 56.7359 40.091C57.7217 39.2035 59.0033 38.7597 60.2849 38.9569C63.5382 39.3514 68.1224 41.3237 70.8335 43.0987C75.3191 46.0572 73.0024 53.0588 70.9321 53.5026C63.4396 55.2776 55.8979 56.9541 48.4054 58.8278C39.8285 60.948 31.2516 63.1668 22.7733 65.5336C20.1115 66.2732 17.5483 67.9003 14.9358 68.9358C14.788 68.9851 14.6401 69.0344 14.4922 69.0344C13.5064 69.0837 12.7177 68.1468 12.8656 67.21C12.9148 66.8649 13.0134 66.5197 13.1613 66.2732C16.9568 58.7291 16.9075 58.7785 13.9007 50.84C13.4078 49.558 13.0134 47.3885 13.6542 46.2544C15.0837 43.789 16.6611 43.7397 20.4073 46.6489C22.8226 48.5225 28.5406 53.404 30.7094 52.2699C32.6811 51.2344 34.6528 50.1497 36.871 48.9663C37.709 48.4732 37.9061 47.1912 37.1667 46.4516Z" fill="#EEF1F6"/>
<path d="M316.366 98.2736C315.38 97.9285 313.162 97.5833 311.486 96.4986C306.853 93.4415 307.198 86.5878 311.979 83.7773C316.81 80.9174 324.253 82.3967 326.619 86.785C327.95 89.2504 327.901 91.8637 326.422 94.2797C324.352 97.534 321.049 98.175 316.366 98.2736Z" fill="#EEF1F6"/>
<path d="M59.8538 74.3593C59.8538 75.2468 60.7904 75.8385 61.6283 75.4933C63.0578 74.803 64.5366 74.1127 65.8675 73.2745C73.4092 68.5903 79.1765 62.4269 80.3595 53.2064C81.7397 42.6547 76.9583 34.6669 68.7757 28.6514C52.8543 16.9162 29.4896 16.719 13.5682 28.4049C1.68867 37.1815 2.23089 47.2402 4.30117 60.5039C4.84339 63.9554 6.81509 67.0125 8.14598 70.4147C7.75164 69.8723 7.3573 69.4285 7.06155 68.9355C-5.40945 47.4375 2.03372 20.9594 22.5887 8.18885C50.2911 -8.97009 88.6899 1.87752 103.083 31.0181C109.442 43.838 109.787 55.0308 103.872 68.0479C102.64 70.7105 95.5415 82.4457 85.338 89.3487C74.3458 96.8434 60.5439 101.774 57.9807 102.366C56.354 102.76 55.8611 103.5 55.5161 105.127C54.0866 111.586 52.9528 118.193 50.7347 124.406C48.0236 131.901 43.6366 138.607 36.0948 142.255C28.0109 146.2 16.6243 146.792 10.0684 137.916C7.50518 134.465 6.42075 131.26 7.25872 127.365C7.60377 125.639 9.62476 122.187 11.2021 124.308C11.3993 124.603 11.4486 124.949 11.35 125.294C11.3007 125.343 11.3007 125.442 11.2514 125.491C8.6882 129.386 9.52617 134.07 13.4203 136.24C16.5257 138.015 19.6311 137.078 22.5887 135.55C25.9406 133.775 27.4686 130.57 28.7995 127.266C31.1656 121.3 32.0035 115.038 32.0528 108.677C32.1021 96.8434 32.1021 85.0096 32.0528 73.1759C32.0528 68.1465 32.0035 68.1959 36.9328 66.8646C42.5521 65.3853 48.1715 63.8568 53.7908 62.4269C55.0231 62.0817 56.2554 61.7859 57.537 61.638C59.3609 61.4407 59.9524 62.4762 59.9031 64.202C59.8045 67.4069 59.8045 70.7105 59.8538 74.3593Z" fill="#EEF1F6"/>
</svg>
