<svg width="1079" height="1000" viewBox="0 0 1079 1000" fill="none" xmlns="http://www.w3.org/2000/svg">
<path d="M197.686 143.102C132.392 204.746 83.9014 284.057 59.9033 373.479M315.407 60.6533C383.038 26.74 459.515 7.93907 540.368 8.64204C597.303 9.13706 651.899 19.264 702.624 37.4625M848.41 120.156C921.107 179.753 976.422 259.699 1005.71 351.201M1029.08 501.41C1029.08 502.908 1029.08 504.408 1029.06 505.91C1026.7 778.176 804.062 996.972 531.796 994.605C259.53 992.238 40.7333 769.603 43.1005 497.337C43.1368 493.158 43.2251 488.992 43.3646 484.839" stroke="#BAD6EB" stroke-width="1.8" stroke-linecap="round"/>
<path d="M204.538 98.9143C204.176 98.5437 203.755 98.3681 203.274 98.3876C202.792 98.407 202.292 98.6245 201.773 99.0399C201.421 99.3222 201.163 99.6104 201 99.9046C200.834 100.196 200.756 100.479 200.765 100.756C200.777 101.03 200.871 101.277 201.046 101.497C201.186 101.685 201.352 101.814 201.545 101.884C201.74 101.951 201.953 101.975 202.182 101.955C202.409 101.931 202.65 101.878 202.905 101.794C203.157 101.707 203.415 101.599 203.678 101.47L204.772 100.955C205.297 100.698 205.813 100.503 206.319 100.371C206.825 100.239 207.311 100.186 207.778 100.21C208.245 100.235 208.686 100.352 209.099 100.561C209.516 100.768 209.896 101.083 210.24 101.506C210.738 102.134 211.012 102.804 211.064 103.516C211.116 104.222 210.947 104.939 210.557 105.666C210.168 106.387 209.558 107.08 208.726 107.746C207.901 108.406 207.081 108.855 206.267 109.092C205.455 109.327 204.68 109.333 203.941 109.112C203.202 108.884 202.53 108.41 201.925 107.688L204.016 106.014C204.313 106.338 204.64 106.546 204.997 106.637C205.354 106.722 205.726 106.705 206.112 106.587C206.499 106.464 206.878 106.252 207.251 105.954C207.617 105.661 207.892 105.354 208.076 105.032C208.264 104.707 208.357 104.39 208.354 104.08C208.352 103.771 208.253 103.493 208.056 103.247C207.872 103.017 207.649 102.879 207.388 102.832C207.129 102.782 206.827 102.806 206.479 102.904C206.135 102.999 205.741 103.151 205.297 103.359L203.96 103.971C202.931 104.451 201.988 104.668 201.132 104.621C200.276 104.575 199.548 104.173 198.947 103.415C198.448 102.799 198.18 102.127 198.142 101.398C198.108 100.667 198.28 99.9367 198.658 99.2085C199.036 98.4804 199.597 97.818 200.342 97.2215C201.101 96.6143 201.867 96.2141 202.64 96.0209C203.416 95.825 204.148 95.8317 204.834 96.0412C205.52 96.2506 206.112 96.6557 206.609 97.2565L204.538 98.9143Z" fill="#BAD6EB"/>
<path d="M216.511 89.155L217.733 90.7955L212.991 94.3272L211.769 92.6867L216.511 89.155ZM211.441 89.9984L213.624 88.3719L219.092 95.713C219.242 95.9147 219.39 96.049 219.535 96.116C219.678 96.1795 219.821 96.1928 219.963 96.1558C220.109 96.1162 220.256 96.0417 220.403 95.9322C220.505 95.8559 220.601 95.771 220.691 95.6775C220.778 95.5807 220.846 95.5067 220.893 95.4558L222.446 96.825C222.363 96.9407 222.238 97.0945 222.073 97.2866C221.91 97.4821 221.691 97.6905 221.415 97.9121C220.904 98.3246 220.39 98.5981 219.874 98.7327C219.362 98.8648 218.87 98.8431 218.399 98.6677C217.928 98.4923 217.503 98.1452 217.122 97.6266L211.441 89.9984Z" fill="#BAD6EB"/>
<path d="M230.616 91.3781C230.101 91.7345 229.58 91.9628 229.053 92.0629C228.524 92.1595 228.02 92.112 227.54 91.9205C227.062 91.7231 226.638 91.358 226.27 90.8253C225.959 90.3768 225.781 89.9431 225.735 89.5242C225.688 89.1054 225.743 88.7049 225.898 88.3228C226.054 87.9407 226.279 87.5775 226.575 87.2331C226.874 86.8863 227.21 86.5555 227.582 86.2405C228.018 85.8666 228.365 85.5592 228.623 85.3183C228.879 85.074 229.042 84.8631 229.111 84.6858C229.18 84.5085 229.155 84.334 229.036 84.1622L229.014 84.1307C228.784 83.7978 228.501 83.6129 228.164 83.5762C227.831 83.537 227.474 83.6496 227.092 83.9138C226.689 84.1926 226.43 84.5038 226.315 84.8474C226.198 85.1875 226.193 85.5174 226.301 85.8371L224.113 87.1018C223.879 86.5384 223.792 85.9713 223.853 85.4005C223.912 84.8262 224.118 84.2742 224.472 83.7444C224.827 83.2087 225.327 82.7179 225.971 82.2717C226.42 81.9614 226.886 81.717 227.368 81.5384C227.855 81.3575 228.334 81.2671 228.805 81.2672C229.28 81.2649 229.731 81.373 230.157 81.5914C230.58 81.8064 230.958 82.1539 231.29 82.634L235.058 88.0799L232.934 89.5491L232.159 88.4295L232.096 88.4731C232.141 88.8151 232.122 89.1577 232.038 89.5007C231.951 89.8403 231.793 90.1699 231.564 90.4894C231.331 90.8055 231.016 91.1017 230.616 91.3781ZM230.188 89.389C230.518 89.1611 230.764 88.895 230.926 88.5908C231.086 88.2831 231.161 87.9673 231.149 87.6437C231.138 87.32 231.034 87.0162 230.837 86.7323L230.245 85.8755C230.206 85.9696 230.139 86.0783 230.043 86.2017C229.948 86.3192 229.836 86.4458 229.707 86.5816C229.576 86.7139 229.443 86.8444 229.31 86.9732C229.174 87.0985 229.05 87.2123 228.94 87.3147C228.703 87.5351 228.516 87.7552 228.378 87.9751C228.24 88.195 228.167 88.4143 228.157 88.6332C228.146 88.8485 228.213 89.0613 228.358 89.2716C228.569 89.5765 228.841 89.7331 229.173 89.7416C229.506 89.7441 229.845 89.6266 230.188 89.389Z" fill="#BAD6EB"/>
<path d="M238.382 79.0886L241.446 83.8664L239.154 85.3366L233.854 77.0723L236.038 75.6712L236.973 77.1293L237.07 77.0671C236.945 76.4692 237.007 75.8922 237.258 75.3364C237.507 74.7769 237.938 74.3005 238.551 73.9071C239.125 73.5389 239.706 73.3435 240.294 73.3208C240.882 73.2981 241.444 73.444 241.98 73.7584C242.513 74.0693 242.986 74.5458 243.398 75.1878L246.773 80.4498L244.481 81.92L241.368 77.0669C241.047 76.5588 240.665 76.2471 240.221 76.1317C239.776 76.0127 239.323 76.1004 238.864 76.3949C238.555 76.5928 238.325 76.834 238.174 77.1186C238.026 77.4008 237.967 77.7119 237.998 78.0517C238.03 78.3856 238.158 78.7312 238.382 79.0886Z" fill="#BAD6EB"/>
<path d="M254.184 76.1215C253.542 76.502 252.863 76.6817 252.147 76.6605C251.433 76.6336 250.732 76.3878 250.045 75.9232C249.36 75.4528 248.738 74.7466 248.179 73.8047C247.605 72.8372 247.283 71.9403 247.215 71.1141C247.143 70.2843 247.272 69.5566 247.599 68.9312C247.928 68.3 248.403 67.8006 249.022 67.4332C249.495 67.1527 249.937 66.9996 250.347 66.9739C250.76 66.9424 251.134 66.9881 251.469 67.1111C251.806 67.2282 252.094 67.37 252.331 67.5364L252.403 67.494L249.891 63.2609L252.228 61.8749L258.907 73.1338L256.598 74.5035L255.796 73.1511L255.697 73.2098C255.726 73.5096 255.708 73.8347 255.644 74.1852C255.58 74.5298 255.434 74.8718 255.204 75.2112C254.978 75.5485 254.638 75.8519 254.184 76.1215ZM253.82 73.8176C254.198 73.5936 254.456 73.3019 254.594 72.9423C254.734 72.5768 254.763 72.1659 254.68 71.7094C254.601 71.2508 254.413 70.7704 254.115 70.2683C253.817 69.7662 253.489 69.3714 253.13 69.0839C252.771 68.7963 252.4 68.63 252.017 68.585C251.633 68.5399 251.253 68.6294 250.875 68.8533C250.49 69.0816 250.228 69.3785 250.088 69.7439C249.948 70.1094 249.92 70.5174 250.004 70.968C250.088 71.4186 250.275 71.8876 250.564 72.3751C250.855 72.8662 251.181 73.2603 251.54 73.5573C251.901 73.8485 252.275 74.0233 252.661 74.0815C253.049 74.1338 253.435 74.0459 253.82 73.8176Z" fill="#BAD6EB"/>
<path d="M266.608 69.017C266.058 69.3176 265.516 69.4901 264.982 69.5346C264.446 69.5754 263.949 69.4755 263.492 69.2349C263.037 68.9885 262.654 68.5812 262.343 68.0129C262.081 67.5343 261.949 67.0844 261.947 66.663C261.945 66.2416 262.041 65.849 262.236 65.4853C262.43 65.1215 262.692 64.7838 263.022 64.4722C263.356 64.1586 263.724 63.8647 264.128 63.5904C264.6 63.2641 264.977 62.9946 265.26 62.7821C265.54 62.5658 265.723 62.3731 265.81 62.2039C265.898 62.0348 265.891 61.8587 265.791 61.6755L265.772 61.6418C265.578 61.2866 265.316 61.0732 264.985 61.0015C264.658 60.9277 264.291 61.0023 263.883 61.2252C263.453 61.4604 263.164 61.7428 263.014 62.0725C262.862 62.3985 262.822 62.7261 262.895 63.0552L260.588 64.0843C260.414 63.4995 260.387 62.9265 260.507 62.3652C260.625 61.8002 260.888 61.2727 261.295 60.7829C261.704 60.2872 262.253 59.8512 262.941 59.475C263.419 59.2132 263.908 59.0188 264.407 58.8917C264.909 58.7626 265.395 58.7227 265.864 58.7722C266.337 58.8196 266.773 58.9741 267.174 59.2359C267.573 59.4939 267.912 59.879 268.192 60.3912L271.37 66.2011L269.104 67.4403L268.451 66.2458L268.384 66.2826C268.393 66.6274 268.337 66.9661 268.218 67.2985C268.097 67.6271 267.905 67.9384 267.643 68.2322C267.379 68.5223 267.034 68.7838 266.608 69.017ZM266.39 66.994C266.742 66.8018 267.014 66.5629 267.208 66.2773C267.399 65.988 267.506 65.6818 267.529 65.3587C267.551 65.0356 267.479 64.7226 267.314 64.4198L266.814 63.5057C266.766 63.5952 266.687 63.6963 266.579 63.809C266.472 63.9159 266.348 64.0301 266.205 64.1517C266.061 64.2696 265.916 64.3855 265.769 64.4996C265.621 64.61 265.486 64.7103 265.365 64.8006C265.108 64.9951 264.898 65.1944 264.738 65.3987C264.578 65.6029 264.482 65.8134 264.45 66.0301C264.416 66.243 264.46 66.4616 264.583 66.6859C264.76 67.0112 265.014 67.1954 265.344 67.2386C265.675 67.2759 266.024 67.1944 266.39 66.994Z" fill="#BAD6EB"/>
<path d="M278.93 62.4749C278.263 62.8097 277.574 62.9416 276.861 62.8706C276.15 62.7938 275.468 62.4998 274.815 61.9884C274.164 61.4713 273.593 60.7235 273.101 59.7449C272.596 58.7397 272.338 57.8226 272.327 56.9936C272.314 56.1608 272.493 55.4439 272.863 54.8428C273.235 54.2361 273.743 53.7711 274.387 53.4477C274.878 53.2009 275.33 53.079 275.741 53.082C276.155 53.0793 276.525 53.151 276.851 53.2971C277.179 53.4375 277.455 53.5989 277.681 53.7814L277.755 53.7441L275.545 49.3462L277.973 48.1265L283.85 59.8239L281.451 61.0292L280.745 59.6242L280.642 59.6758C280.651 59.9769 280.61 60.3 280.521 60.6451C280.434 60.9845 280.264 61.3155 280.012 61.6381C279.763 61.9587 279.402 62.2377 278.93 62.4749ZM278.728 60.1512C279.12 59.9542 279.398 59.6811 279.561 59.332C279.726 58.9773 279.784 58.5693 279.733 58.1082C279.686 57.6452 279.532 57.1529 279.27 56.6312C279.008 56.1096 278.708 55.6928 278.37 55.3809C278.032 55.069 277.673 54.8773 277.294 54.8056C276.915 54.7339 276.529 54.7966 276.137 54.9937C275.737 55.1945 275.454 55.4724 275.289 55.8272C275.124 56.182 275.068 56.5871 275.12 57.0424C275.172 57.4978 275.326 57.9787 275.58 58.4851C275.837 58.9954 276.134 59.4112 276.472 59.7326C276.812 60.0483 277.172 60.2486 277.553 60.3336C277.937 60.4129 278.328 60.3521 278.728 60.1512Z" fill="#BAD6EB"/>
<path d="M14.9477 477.084L12.666 477.117L12.5128 466.367L14.7945 466.334L14.8516 470.342L25.6595 470.188L25.6984 472.923L14.8906 473.077L14.9477 477.084Z" fill="#BAD6EB"/>
<path d="M25.658 461.516L15.8419 461.313L15.8964 458.674L17.6091 458.709L17.6112 458.607C17.0057 458.416 16.5518 458.106 16.2495 457.678C15.9429 457.249 15.7953 456.76 15.8067 456.211C15.8095 456.074 15.821 455.928 15.8413 455.77C15.8616 455.613 15.8879 455.475 15.9202 455.356L18.3359 455.406C18.2949 455.533 18.2572 455.709 18.2227 455.935C18.1882 456.16 18.169 456.366 18.1651 456.554C18.1569 456.954 18.2368 457.314 18.405 457.633C18.569 457.947 18.8024 458.199 19.1054 458.389C19.4085 458.574 19.7602 458.671 20.1607 458.679L25.7142 458.794L25.658 461.516Z" fill="#BAD6EB"/>
<path d="M26.5019 448.481C26.4671 449.106 26.3276 449.658 26.0834 450.135C25.835 450.612 25.4879 450.981 25.0423 451.242C24.5927 451.499 24.0446 451.609 23.3978 451.573C22.8532 451.543 22.4014 451.417 22.0424 451.197C21.6833 450.976 21.4006 450.687 21.1943 450.33C20.988 449.973 20.8395 449.572 20.749 449.127C20.6588 448.679 20.6037 448.21 20.5839 447.723C20.556 447.149 20.5263 446.687 20.4946 446.335C20.4587 445.983 20.392 445.725 20.2944 445.562C20.1968 445.399 20.0437 445.311 19.8352 445.3L19.7969 445.297C19.3927 445.275 19.0729 445.385 18.8374 445.628C18.6022 445.867 18.4717 446.218 18.4459 446.682C18.4187 447.171 18.5056 447.567 18.7065 447.868C18.9031 448.169 19.1605 448.375 19.4787 448.487L19.1346 450.99C18.546 450.829 18.0451 450.55 17.632 450.151C17.2146 449.752 16.9053 449.251 16.7042 448.646C16.499 448.038 16.4182 447.342 16.4618 446.559C16.4921 446.014 16.5849 445.496 16.7402 445.006C16.8958 444.511 17.1184 444.077 17.408 443.705C17.6978 443.328 18.0596 443.039 18.4933 442.837C18.9229 442.635 19.4291 442.55 20.012 442.582L26.6239 442.95L26.4805 445.528L25.1211 445.453L25.1168 445.529C25.4144 445.704 25.6729 445.929 25.8922 446.206C26.1073 446.483 26.2705 446.81 26.3818 447.187C26.4889 447.565 26.5289 447.996 26.5019 448.481ZM24.6689 447.598C24.6911 447.198 24.6321 446.84 24.4917 446.525C24.347 446.21 24.1434 445.957 23.8808 445.768C23.6182 445.578 23.3146 445.474 22.9699 445.455L21.9296 445.397C21.9802 445.485 22.0248 445.605 22.0633 445.756C22.0978 445.903 22.1291 446.069 22.1572 446.255C22.1811 446.439 22.2028 446.624 22.2224 446.809C22.2378 446.993 22.2519 447.16 22.2649 447.31C22.294 447.632 22.3529 447.915 22.4418 448.159C22.5307 448.403 22.6587 448.596 22.8258 448.737C22.9886 448.879 23.1977 448.956 23.453 448.971C23.8231 448.991 24.1135 448.873 24.3242 448.616C24.5308 448.354 24.6457 448.015 24.6689 447.598Z" fill="#BAD6EB"/>
<path d="M28.3531 437.429L18.5751 436.542L18.8211 433.83L28.5991 434.717L28.3531 437.429ZM17.4382 435.066C17.4016 435.469 17.2366 435.803 16.943 436.067C16.6456 436.327 16.3081 436.439 15.9303 436.405C15.5569 436.371 15.2494 436.2 15.0078 435.891C14.7624 435.578 14.6579 435.22 14.6945 434.817C14.7311 434.414 14.8981 434.082 15.1955 433.822C15.489 433.558 15.8225 433.443 16.196 433.477C16.5737 433.511 16.8853 433.685 17.1307 433.998C17.3723 434.307 17.4748 434.662 17.4382 435.066Z" fill="#BAD6EB"/>
<path d="M23.0645 423.9L28.6679 424.805L28.2333 427.494L18.541 425.927L18.9552 423.365L20.6652 423.641L20.6836 423.528C20.1546 423.222 19.7668 422.79 19.5203 422.232C19.2696 421.674 19.2024 421.035 19.3187 420.315C19.4275 419.642 19.6696 419.079 20.045 418.626C20.4204 418.173 20.904 417.852 21.4957 417.663C22.0833 417.473 22.7536 417.439 23.5066 417.561L29.6779 418.558L29.2433 421.247L23.5516 420.326C22.9591 420.226 22.4719 420.303 22.0899 420.556C21.7037 420.809 21.4671 421.204 21.38 421.743C21.3215 422.105 21.3477 422.437 21.4584 422.74C21.5699 423.038 21.7624 423.29 22.0359 423.494C22.3059 423.693 22.6487 423.828 23.0645 423.9Z" fill="#BAD6EB"/>
<path d="M31.7532 411.635L22.1215 409.73L22.6496 407.059L32.2814 408.963L31.7532 411.635ZM21.1452 408.143C21.0667 408.54 20.8676 408.855 20.5481 409.087C20.2252 409.314 19.8777 409.391 19.5056 409.318C19.1377 409.245 18.8498 409.042 18.6418 408.71C18.4304 408.373 18.364 408.006 18.4426 407.609C18.5211 407.212 18.7218 406.899 19.0447 406.672C19.3643 406.44 19.708 406.36 20.0759 406.433C20.4479 406.507 20.7397 406.712 20.951 407.049C21.159 407.381 21.2237 407.746 21.1452 408.143Z" fill="#BAD6EB"/>
<path d="M28.6314 397.93L34.1579 399.224L33.5368 401.875L23.9774 399.636L24.5693 397.109L26.2559 397.504L26.2821 397.392C25.7757 397.051 25.419 396.593 25.212 396.019C25.0009 395.445 24.9784 394.802 25.1446 394.093C25.3001 393.429 25.5809 392.884 25.987 392.459C26.3931 392.033 26.8979 391.746 27.5014 391.599C28.1008 391.45 28.7718 391.463 29.5145 391.637L35.6012 393.063L34.9801 395.714L29.3664 394.399C28.7824 394.258 28.291 394.3 27.8923 394.526C27.4894 394.752 27.2258 395.13 27.1014 395.661C27.0178 396.018 27.0207 396.351 27.1101 396.661C27.2004 396.966 27.3749 397.23 27.6335 397.453C27.889 397.67 28.2216 397.829 28.6314 397.93Z" fill="#BAD6EB"/>
<path d="M41.7997 384.442C41.5986 385.301 41.3078 386.01 40.9275 386.568C40.5523 387.124 40.1211 387.535 39.6341 387.802C39.1471 388.068 38.64 388.197 38.1126 388.187L38.3572 385.658C38.5655 385.628 38.7716 385.551 38.9755 385.428C39.1794 385.306 39.3622 385.123 39.524 384.881C39.6909 384.635 39.8195 384.32 39.9099 383.934C40.045 383.357 40.0152 382.849 39.8206 382.41C39.631 381.967 39.2085 381.669 38.5529 381.515L36.8041 381.105L36.7779 381.218C37.0162 381.396 37.2264 381.629 37.4084 381.917C37.5905 382.204 37.7135 382.548 37.7773 382.948C37.8411 383.349 37.8138 383.802 37.6952 384.308C37.5271 385.026 37.208 385.64 36.7381 386.152C36.265 386.658 35.6432 387.005 34.8729 387.192C34.0993 387.374 33.1835 387.341 32.1255 387.093C31.0426 386.84 30.1794 386.451 29.5359 385.929C28.8925 385.406 28.4588 384.81 28.2348 384.14C28.0119 383.466 27.9825 382.779 28.1468 382.078C28.2722 381.543 28.4684 381.116 28.7355 380.798C28.9985 380.478 29.2906 380.241 29.6118 380.084C29.9298 379.922 30.2315 379.811 30.5169 379.751L30.5403 379.651L28.9346 379.275L29.5512 376.643L39.204 378.904C40.0172 379.094 40.651 379.453 41.1054 379.979C41.5598 380.506 41.8413 381.154 41.9499 381.924C42.0636 382.69 42.0136 383.529 41.7997 384.442ZM35.9005 383.001C36.0006 382.574 35.9793 382.188 35.8367 381.844C35.691 381.495 35.4374 381.195 35.076 380.944C34.7115 380.688 34.2491 380.494 33.689 380.363C33.1289 380.231 32.625 380.197 32.1773 380.258C31.7254 380.318 31.3504 380.471 31.0523 380.717C30.7541 380.962 30.5549 381.298 30.4548 381.726C30.3528 382.161 30.385 382.556 30.5515 382.91C30.7139 383.263 30.9846 383.565 31.3635 383.816C31.7425 384.067 32.2037 384.256 32.7472 384.383C33.299 384.512 33.7942 384.547 34.2326 384.488C34.6678 384.424 35.0299 384.27 35.3188 384.027C35.6045 383.779 35.7984 383.437 35.9005 383.001Z" fill="#BAD6EB"/>
<path d="M1048.05 363.847L1048.96 367.137L1041.45 372.962L1041.49 373.11L1050.93 374.232L1051.84 377.521L1039.23 381.021L1038.51 378.434L1046.72 376.156L1046.69 376.051L1037.63 375.048L1037.15 373.286L1044.42 367.752L1044.39 367.648L1036.15 369.934L1035.43 367.347L1048.05 363.847Z" fill="#BAD6EB"/>
<path d="M1043.02 394.836C1042.78 393.857 1042.76 392.964 1042.98 392.158C1043.2 391.354 1043.63 390.67 1044.27 390.105C1044.91 389.539 1045.73 389.13 1046.73 388.876C1047.71 388.629 1048.62 388.602 1049.46 388.795C1050.29 388.989 1051 389.378 1051.59 389.964C1052.18 390.554 1052.59 391.315 1052.83 392.249C1052.99 392.877 1053.03 393.487 1052.97 394.08C1052.91 394.675 1052.73 395.226 1052.43 395.732C1052.13 396.242 1051.71 396.688 1051.16 397.068C1050.61 397.448 1049.93 397.74 1049.12 397.944L1048.4 398.127L1046.37 390.089L1048 389.676L1049.41 395.229C1049.79 395.133 1050.1 394.965 1050.35 394.726C1050.61 394.487 1050.78 394.2 1050.87 393.865C1050.96 393.533 1050.96 393.174 1050.87 392.79C1050.77 392.389 1050.58 392.058 1050.32 391.795C1050.06 391.535 1049.75 391.357 1049.4 391.262C1049.05 391.166 1048.69 391.163 1048.31 391.254L1046.75 391.646C1046.28 391.765 1045.9 391.955 1045.6 392.215C1045.3 392.479 1045.1 392.796 1045 393.165C1044.89 393.534 1044.89 393.94 1045.01 394.382C1045.08 394.676 1045.19 394.934 1045.33 395.157C1045.48 395.379 1045.65 395.557 1045.86 395.689C1046.07 395.82 1046.31 395.902 1046.57 395.932L1047.03 398.414C1046.41 398.439 1045.83 398.314 1045.3 398.04C1044.77 397.77 1044.3 397.364 1043.91 396.822C1043.52 396.283 1043.22 395.621 1043.02 394.836Z" fill="#BAD6EB"/>
<path d="M1047.62 411.796C1047.39 410.811 1047.4 409.918 1047.63 409.117C1047.88 408.319 1048.32 407.645 1048.97 407.095C1049.62 406.544 1050.45 406.153 1051.46 405.923C1052.45 405.699 1053.36 405.693 1054.19 405.906C1055.02 406.119 1055.72 406.525 1056.29 407.124C1056.87 407.727 1057.26 408.498 1057.48 409.437C1057.62 410.069 1057.65 410.68 1057.57 411.271C1057.5 411.864 1057.31 412.411 1057 412.91C1056.69 413.413 1056.25 413.849 1055.69 414.216C1055.14 414.583 1054.45 414.859 1053.64 415.045L1052.91 415.211L1051.07 407.128L1052.71 406.753L1053.99 412.337C1054.37 412.25 1054.69 412.089 1054.95 411.856C1055.2 411.623 1055.38 411.34 1055.48 411.007C1055.58 410.677 1055.59 410.319 1055.5 409.933C1055.41 409.53 1055.24 409.194 1054.98 408.925C1054.73 408.659 1054.42 408.474 1054.07 408.371C1053.73 408.266 1053.36 408.255 1052.98 408.337L1051.42 408.693C1050.95 408.801 1050.56 408.982 1050.25 409.235C1049.95 409.492 1049.74 409.804 1049.63 410.171C1049.51 410.538 1049.51 410.943 1049.61 411.388C1049.67 411.683 1049.78 411.943 1049.92 412.17C1050.06 412.396 1050.23 412.577 1050.43 412.714C1050.64 412.85 1050.87 412.937 1051.14 412.973L1051.53 415.466C1050.92 415.476 1050.34 415.338 1049.81 415.052C1049.29 414.769 1048.84 414.352 1048.45 413.801C1048.07 413.254 1047.8 412.585 1047.62 411.796Z" fill="#BAD6EB"/>
<path d="M1061.07 427.13L1059.06 427.527L1057.91 421.727L1059.92 421.33L1061.07 427.13ZM1062.49 422.189L1063.02 424.86L1054.04 426.639C1053.79 426.688 1053.61 426.764 1053.48 426.867C1053.36 426.968 1053.29 427.092 1053.26 427.236C1053.24 427.385 1053.24 427.549 1053.28 427.729C1053.3 427.854 1053.34 427.977 1053.38 428.099C1053.43 428.219 1053.47 428.312 1053.5 428.376L1051.59 429.19C1051.52 429.064 1051.44 428.886 1051.33 428.654C1051.23 428.423 1051.13 428.136 1051.05 427.791C1050.9 427.152 1050.87 426.571 1050.97 426.047C1051.08 425.528 1051.31 425.093 1051.67 424.744C1052.03 424.394 1052.52 424.159 1053.16 424.038L1062.49 422.189Z" fill="#BAD6EB"/>
<path d="M1052.33 436.041L1062.01 434.408L1062.46 437.093L1052.78 438.727L1052.33 436.041ZM1063.49 435.546C1063.42 435.147 1063.49 434.782 1063.71 434.452C1063.93 434.125 1064.23 433.93 1064.6 433.867C1064.97 433.804 1065.31 433.891 1065.63 434.128C1065.94 434.369 1066.14 434.688 1066.2 435.088C1066.27 435.487 1066.19 435.85 1065.97 436.177C1065.76 436.507 1065.46 436.704 1065.09 436.766C1064.72 436.829 1064.37 436.74 1064.06 436.5C1063.74 436.263 1063.55 435.945 1063.49 435.546Z" fill="#BAD6EB"/>
<path d="M1059.91 447.944L1054.29 448.728L1053.91 446.032L1063.63 444.674L1063.99 447.244L1062.28 447.484L1062.29 447.598C1062.89 447.734 1063.39 448.032 1063.79 448.493C1064.19 448.953 1064.44 449.544 1064.54 450.265C1064.64 450.941 1064.57 451.55 1064.35 452.093C1064.12 452.637 1063.75 453.086 1063.24 453.441C1062.74 453.796 1062.11 454.026 1061.35 454.131L1055.16 454.996L1054.78 452.299L1060.49 451.502C1061.09 451.423 1061.53 451.206 1061.82 450.851C1062.12 450.496 1062.23 450.048 1062.15 449.508C1062.1 449.145 1061.98 448.835 1061.78 448.579C1061.59 448.326 1061.33 448.143 1061.01 448.028C1060.69 447.918 1060.33 447.889 1059.91 447.944Z" fill="#BAD6EB"/>
<path d="M1052.34 468.359C1052.24 467.482 1052.27 466.717 1052.44 466.063C1052.61 465.413 1052.88 464.881 1053.24 464.466C1053.61 464.05 1054.05 463.758 1054.55 463.59L1055.17 466.054C1054.98 466.152 1054.81 466.294 1054.66 466.478C1054.51 466.662 1054.4 466.896 1054.33 467.179C1054.26 467.466 1054.24 467.806 1054.29 468.2C1054.36 468.789 1054.55 469.257 1054.89 469.605C1055.21 469.958 1055.71 470.096 1056.38 470.02L1058.17 469.816L1058.15 469.702C1057.87 469.614 1057.59 469.466 1057.32 469.256C1057.05 469.046 1056.82 468.764 1056.63 468.409C1056.43 468.054 1056.31 467.618 1056.25 467.101C1056.16 466.369 1056.26 465.683 1056.53 465.043C1056.8 464.407 1057.27 463.871 1057.93 463.435C1058.6 463.003 1059.47 462.725 1060.55 462.602C1061.66 462.475 1062.6 462.55 1063.38 462.825C1064.16 463.1 1064.77 463.516 1065.21 464.07C1065.65 464.63 1065.91 465.267 1065.99 465.982C1066.05 466.529 1066.01 466.996 1065.87 467.386C1065.73 467.775 1065.53 468.098 1065.28 468.354C1065.04 468.613 1064.79 468.819 1064.54 468.972L1064.55 469.074L1066.19 468.887L1066.5 471.573L1056.65 472.698C1055.82 472.793 1055.1 472.669 1054.5 472.326C1053.89 471.983 1053.41 471.468 1053.04 470.78C1052.68 470.097 1052.44 469.29 1052.34 468.359ZM1058.38 467.727C1058.43 468.163 1058.58 468.519 1058.83 468.795C1059.08 469.074 1059.42 469.271 1059.85 469.386C1060.28 469.504 1060.78 469.531 1061.35 469.465C1061.92 469.4 1062.41 469.263 1062.81 469.054C1063.21 468.845 1063.51 468.575 1063.71 468.243C1063.91 467.912 1063.98 467.528 1063.93 467.092C1063.88 466.647 1063.72 466.287 1063.44 466.009C1063.17 465.731 1062.82 465.538 1062.37 465.43C1061.93 465.322 1061.43 465.299 1060.88 465.363C1060.32 465.427 1059.84 465.561 1059.45 465.765C1059.06 465.972 1058.77 466.239 1058.58 466.565C1058.39 466.895 1058.33 467.282 1058.38 467.727Z" fill="#BAD6EB"/>
<path d="M758.627 20.9807L759.5 18.8721L769.841 21.8146L768.968 23.9232L765.113 22.8263L760.981 32.8141L758.35 32.0654L762.482 22.0776L758.627 20.9807Z" fill="#BAD6EB"/>
<path d="M772.398 35.3797L776.588 26.5005L779.049 27.4555L778.318 29.0047L778.413 29.0417C778.84 28.5554 779.317 28.2478 779.843 28.1191C780.371 27.9865 780.891 28.0197 781.403 28.2185C781.53 28.2679 781.664 28.3287 781.803 28.4012C781.943 28.4736 782.062 28.5449 782.161 28.6151L781.13 30.8002C781.027 30.7193 780.877 30.6245 780.679 30.5158C780.481 30.4071 780.295 30.3189 780.12 30.251C779.746 30.1061 779.375 30.0557 779.007 30.0996C778.644 30.1412 778.312 30.2676 778.01 30.4788C777.712 30.6915 777.478 30.979 777.307 31.3413L774.936 36.3648L772.398 35.3797Z" fill="#BAD6EB"/>
<path d="M785.788 42.1336C785.217 41.8778 784.756 41.5529 784.406 41.1587C784.059 40.7608 783.851 40.3113 783.785 39.8104C783.723 39.3074 783.839 38.7667 784.13 38.1883C784.376 37.7013 784.673 37.3331 785.023 37.0838C785.373 36.8345 785.756 36.6795 786.173 36.6187C786.589 36.558 787.024 36.5658 787.476 36.6423C787.933 36.7205 788.393 36.8378 788.858 36.9943C789.406 37.1742 789.851 37.3126 790.193 37.4096C790.537 37.5028 790.805 37.5341 790.997 37.5033C791.189 37.4725 791.331 37.3639 791.425 37.1775L791.443 37.1432C791.625 36.7817 791.649 36.4498 791.516 36.1476C791.386 35.847 791.109 35.6019 790.685 35.4123C790.238 35.2122 789.833 35.15 789.47 35.2258C789.11 35.2978 788.814 35.4592 788.583 35.7101L786.376 34.4992C786.761 34.0187 787.223 33.6609 787.761 33.4258C788.3 33.187 788.893 33.0839 789.54 33.1164C790.192 33.1469 790.876 33.3222 791.591 33.6423C792.089 33.865 792.537 34.1353 792.935 34.453C793.336 34.7724 793.653 35.1312 793.886 35.5293C794.124 35.9291 794.25 36.3634 794.266 36.8324C794.285 37.2975 794.162 37.7908 793.9 38.3121L790.919 44.2256L788.562 43.1712L789.175 41.9554L789.105 41.9241C788.822 42.1337 788.508 42.2892 788.161 42.3906C787.817 42.4882 787.445 42.5203 787.048 42.4869C786.652 42.4497 786.232 42.3319 785.788 42.1336ZM787.346 40.7738C787.712 40.9374 788.07 41.0114 788.421 40.9959C788.774 40.9766 789.092 40.8808 789.374 40.7086C789.656 40.5364 789.875 40.2962 790.03 39.9879L790.499 39.0575C790.397 39.0722 790.267 39.07 790.109 39.051C789.958 39.0299 789.79 38.999 789.605 38.9585C789.423 38.9141 789.241 38.8678 789.06 38.8196C788.882 38.7677 788.719 38.7207 788.574 38.6789C788.261 38.5902 787.972 38.5429 787.709 38.5368C787.445 38.5307 787.213 38.5786 787.014 38.6807C786.817 38.779 786.66 38.9423 786.545 39.1706C786.378 39.5017 786.373 39.8095 786.53 40.0942C786.693 40.3768 786.965 40.6033 787.346 40.7738Z" fill="#BAD6EB"/>
<path d="M808.73 42.8662L800.987 49.8818L798.273 48.4507L799.943 38.2328L802.488 39.5745L800.924 46.6909L801.014 46.7386L806.18 41.5215L808.73 42.8662Z" fill="#BAD6EB"/>
<path d="M829.887 51.3168L823.226 62.5866L820.908 61.159L827.568 49.8892L829.887 51.3168Z" fill="#BAD6EB"/>
<path d="M811.878 56.073C811.142 55.3812 810.631 54.6215 810.344 53.7939C810.062 52.9658 810.004 52.1147 810.168 51.2406C810.334 50.3631 810.726 49.5086 811.344 48.6773C811.946 47.8664 812.617 47.2891 813.357 46.9452C814.098 46.6014 814.854 46.5021 815.627 46.6474C816.402 46.7957 817.141 47.1997 817.843 47.8594C818.315 48.3031 818.692 48.7999 818.974 49.35C819.262 49.8995 819.435 50.4832 819.492 51.1012C819.553 51.722 819.482 52.3642 819.28 53.0276C819.08 53.6877 818.731 54.353 818.233 55.0236L817.787 55.624L811.747 49.9451L812.753 48.5902L816.925 52.5134C817.159 52.1986 817.304 51.8614 817.36 51.5017C817.416 51.1421 817.385 50.7902 817.266 50.4461C817.153 50.1015 816.952 49.7935 816.663 49.522C816.362 49.2388 816.038 49.0648 815.691 48.9998C815.349 48.9343 815.018 48.9686 814.697 49.1026C814.379 49.2332 814.103 49.4527 813.868 49.7611L812.912 51.0492C812.622 51.4392 812.437 51.8375 812.357 52.2441C812.279 52.6536 812.305 53.0491 812.432 53.4308C812.56 53.8124 812.79 54.1594 813.122 54.4717C813.343 54.679 813.57 54.8345 813.804 54.9383C814.038 55.0421 814.271 55.0869 814.503 55.0726C814.735 55.0584 814.959 54.9841 815.175 54.8499L816.91 56.7085C816.456 57.1067 815.95 57.3514 815.392 57.4426C814.84 57.5333 814.262 57.4665 813.659 57.2422C813.062 57.0173 812.468 56.6276 811.878 56.073Z" fill="#BAD6EB"/>
</svg>
