<svg width="24" height="24" viewBox="0 0 24 24" fill="none" xmlns="http://www.w3.org/2000/svg">
<path d="M16 10C16 7.79 14.21 6 12 6C9.79 6 8 7.79 8 10C8 12.21 9.79 14 12 14C14.21 14 16 12.21 16 10ZM10 10C10 8.9 10.9 8 12 8C13.1 8 14 8.9 14 10C14 11.1 13.1 12 12 12C10.9 12 10 11.1 10 10Z" fill="#7096D1"/>
<path d="M11.4201 21.81C11.5901 21.93 11.8001 22 12.0001 22C12.2001 22 12.4101 21.94 12.5801 21.81C12.8801 21.59 20.0301 16.44 20.0001 9.98999C20.0001 5.57999 16.4101 1.98999 12.0001 1.98999C7.59009 1.98999 4.00009 5.57999 4.00009 9.98999C3.97009 16.43 11.1201 21.59 11.4201 21.81ZM12.0001 3.99999C15.3101 3.99999 18.0001 6.68999 18.0001 9.99999C18.0201 14.44 13.6101 18.43 12.0001 19.74C10.3901 18.43 5.98009 14.45 6.00009 9.99999C6.00009 6.68999 8.69009 3.99999 12.0001 3.99999Z" fill="#7096D1"/>
</svg>
