<svg width="62" height="56" viewBox="0 0 62 56" fill="none" xmlns="http://www.w3.org/2000/svg">
<path d="M57.0708 55.2744C59.7617 53.0852 65.029 39.2662 57.7413 15.7297C55.7803 9.39739 51.429 1.16055 45.1324 0.957773C40.5389 0.810296 35.9241 5.1194 32.9316 11.4287C32.7612 11.787 32.4192 12.0255 32.0335 12.0566C31.6232 12.0889 31.2139 12.1211 30.8036 12.1522C30.7487 12.1568 30.6926 12.1568 30.6377 12.1522C30.2273 12.12 29.8181 12.0877 29.4077 12.0566C29.0209 12.0266 28.6789 11.787 28.5096 11.4287C25.5183 5.12055 20.9024 0.810296 16.3089 0.957773C10.0123 1.16055 5.66094 9.39739 3.69998 15.7297C-3.58775 39.2662 1.67959 53.0852 4.37045 55.2744H57.0708Z" fill="#FFF9F0"/>
</svg>
