<svg width="62" height="55" viewBox="0 0 62 55" fill="none" xmlns="http://www.w3.org/2000/svg">
<path d="M57.0708 54.497C59.7617 52.3079 65.029 38.4888 57.7413 14.9524C55.7803 8.62005 51.429 0.383211 45.1324 0.180429C40.5389 0.032952 35.9241 4.34206 32.9316 10.6513C32.7612 11.0096 32.4192 11.2481 32.0335 11.2792C31.6232 11.3115 31.2139 11.3438 30.8036 11.3749C30.7487 11.3795 30.6926 11.3795 30.6377 11.3749C30.2273 11.3426 29.8181 11.3104 29.4077 11.2792C29.0209 11.2493 28.6789 11.0096 28.5096 10.6513C25.5183 4.34321 20.9024 0.032952 16.3089 0.180429C10.0123 0.383211 5.66094 8.62005 3.69998 14.9524C-3.58775 38.4888 1.67959 52.3079 4.37045 54.497H57.0708Z" fill="#BAD6EB"/>
</svg>
