<svg width="62" height="55" viewBox="0 0 62 55" fill="none" xmlns="http://www.w3.org/2000/svg">
<path d="M57.0708 54.3203C59.7617 52.1311 65.029 38.3121 57.7413 14.7756C55.7803 8.44329 51.429 0.206453 45.1324 0.00367145C40.5389 -0.143806 35.9241 4.1653 32.9316 10.4746C32.7612 10.8329 32.4192 11.0714 32.0335 11.1025C31.6232 11.1348 31.2139 11.167 30.8036 11.1981C30.7487 11.2027 30.6926 11.2027 30.6377 11.1981C30.2273 11.1659 29.8181 11.1336 29.4077 11.1025C29.0209 11.0725 28.6789 10.8329 28.5096 10.4746C25.5183 4.16645 20.9024 -0.143806 16.3089 0.00367145C10.0123 0.206453 5.66094 8.44329 3.69998 14.7756C-3.58775 38.3121 1.67959 52.1311 4.37045 54.3203H57.0708Z" fill="#7096D1"/>
</svg>
