<svg width="62" height="55" viewBox="0 0 62 55" fill="none" xmlns="http://www.w3.org/2000/svg">
<path d="M57.0708 54.6157C59.7617 52.4265 65.029 38.6075 57.7413 15.071C55.7803 8.7387 51.429 0.501863 45.1324 0.299082C40.5389 0.151604 35.9241 4.46071 32.9316 10.77C32.7612 11.1283 32.4192 11.3668 32.0335 11.3979C31.6232 11.4302 31.2139 11.4624 30.8036 11.4935C30.7487 11.4981 30.6926 11.4981 30.6377 11.4935C30.2273 11.4613 29.8181 11.429 29.4077 11.3979C29.0209 11.3679 28.6789 11.1283 28.5096 10.77C25.5183 4.46186 20.9024 0.151604 16.3089 0.299082C10.0123 0.501863 5.66094 8.7387 3.69998 15.071C-3.58775 38.6075 1.67959 52.4265 4.37045 54.6157H57.0708Z" fill="#334EAC"/>
</svg>
