<svg width="39" height="54" viewBox="0 0 39 54" fill="none" xmlns="http://www.w3.org/2000/svg">
<path d="M13.1154 17.3018C12.3117 16.4753 11.5974 15.704 10.8831 14.9693C10.508 14.5837 10.8116 13.9225 11.3474 13.9776C11.7403 14.0143 14.2047 15.7958 16.7406 16.0345C17.955 16.1447 19.1694 15.8876 20.2052 14.9326C20.5623 14.602 21.0267 14.4367 21.491 14.5102C22.6696 14.6571 24.3305 15.3918 25.3127 16.0529C26.9378 17.1548 26.0984 19.7628 25.3484 19.928C22.6339 20.5892 19.9016 21.2136 17.1871 21.9115C14.0797 22.7012 10.9724 23.5277 7.90071 24.4092C6.93636 24.6847 6.00772 25.2908 5.06122 25.6765C5.00765 25.6948 4.95407 25.7132 4.9005 25.7132C4.54333 25.7316 4.2576 25.3826 4.31117 25.0337C4.32903 24.9051 4.36475 24.7766 4.41832 24.6847C5.79342 21.8748 5.77556 21.8932 4.6862 18.9363C4.50761 18.4588 4.36475 17.6507 4.5969 17.2283C5.1148 16.31 5.68627 16.2917 7.04351 17.3752C7.91857 18.0731 9.99015 19.8913 10.7759 19.4689C11.4903 19.0832 12.2046 18.6792 13.0082 18.2384C13.3118 18.0548 13.3832 17.5773 13.1154 17.3018Z" fill="white"/>
<path d="M21.3309 27.6967C21.3309 28.0273 21.6702 28.2477 21.9738 28.1191C22.4917 27.862 23.0275 27.6049 23.5097 27.2927C26.242 25.5479 28.3314 23.2522 28.76 19.8179C29.2601 15.8876 27.5278 12.9124 24.5633 10.6718C18.795 6.30082 10.3301 6.22735 4.56187 10.58C0.257992 13.8491 0.454435 17.5956 1.20449 22.536C1.40093 23.8216 2.11527 24.9602 2.59745 26.2274C2.45458 26.0254 2.31171 25.8601 2.20456 25.6765C-2.31362 17.6691 0.383001 7.80679 7.82996 3.05011C17.8664 -3.3411 31.7781 0.699322 36.9928 11.5534C39.2965 16.3284 39.4215 20.4974 37.2785 25.3459C36.832 26.3376 34.2604 30.7086 30.5637 33.2798C26.5813 36.0714 21.5809 37.9079 20.6523 38.1283C20.063 38.2753 19.8844 38.5507 19.7594 39.1568C19.2415 41.5627 18.8307 44.0237 18.0271 46.3377C17.0449 49.1293 15.4555 51.627 12.7232 52.9861C9.79439 54.4553 5.66909 54.6757 3.29392 51.3699C2.36529 50.0843 1.9724 48.8905 2.27599 47.4397C2.401 46.7969 3.1332 45.5113 3.70467 46.301C3.7761 46.4112 3.79396 46.5398 3.75824 46.6683C3.74038 46.6867 3.74038 46.7234 3.72253 46.7418C2.79389 48.1927 3.09748 49.9374 4.5083 50.7455C5.63338 51.4066 6.75846 51.0577 7.82996 50.4883C9.04433 49.8272 9.59795 48.6334 10.0801 47.4029C10.9373 45.1807 11.2409 42.8483 11.2588 40.4791C11.2766 36.0714 11.2766 31.6637 11.2588 27.2559C11.2588 25.3826 11.2409 25.401 13.0268 24.9051C15.0626 24.3542 17.0985 23.7848 19.1343 23.2522C19.5808 23.1237 20.0273 23.0135 20.4916 22.9584C21.1523 22.8849 21.3666 23.2706 21.3488 23.9134C21.3131 25.1071 21.3131 26.3376 21.3309 27.6967Z" fill="white"/>
</svg>
