<?xml version="1.0" encoding="utf-8"?>
<!-- Generator: Adobe Illustrator 19.0.0, SVG Export Plug-In . SVG Version: 6.00 Build 0)  -->
<svg version="1.1" id="Layer_1" xmlns="http://www.w3.org/2000/svg" xmlns:xlink="http://www.w3.org/1999/xlink" x="0px" y="0px"
	 viewBox="28 283.6 650.1 231.4" style="enable-background:new 28 283.6 650.1 231.4;" xml:space="preserve">
<style type="text/css">
	.st0{fill:#081F5C;}
	.st1{fill:#FFFFFF;}
</style>
<g id="XMLID_28_">
	<path id="XMLID_97_" class="st0" d="M36.7,378.6c-5.2-13-5.4-26.3-1.3-39.5c9.5-30.1,31.1-46.2,61.4-50.7
		c40.5-6.1,80.3,20,91.7,59.2c4.6,15.8,2.7,31.2-5,45.5c-7.3,13.7-17.2,25.6-30.9,33.2c-10.9,6.1-22.3,11.2-33.7,16.1
		c-3.7,1.6-5.6,3.4-6.3,7.3c-2.6,12.7-4.6,25.6-11,37.2c-8,14.4-20.2,21.8-36.8,21c-12.7-0.6-23.5-12.1-23-23.8
		c0-0.8-0.2-1.9,0.3-2.5c1.3-1.9,2.8-3.6,4.3-5.4c-0.1,1.9,0.1,3.8-0.3,5.6c-0.8,4.1-0.7,8,2.4,11.2c3.2,3.3,7.2,4.1,11.5,2.9
		c6.3-1.7,10.2-5.9,12.8-11.7c4.5-10.3,6.1-21.1,6.1-32.2c0.1-18.2,0.2-36.3-0.1-54.5c-0.1-4.7,1.6-6.9,6.1-8
		c9.7-2.4,19.3-5.2,28.9-7.7c4.9-1.2,5.9-0.2,5.9,4.9c0,4,0,8,0,12c0,3.2,1.2,4.5,4.3,3c32-15.4,34-49.7,12-68.3
		c-25.1-21.2-66.1-21.1-89,0.6c-11.3,10.6-12.4,23.7-11,37.7c0.2,1.7,0.5,3.3,0.6,4.9C36.8,377.3,36.7,378,36.7,378.6z"/>
	<path id="XMLID_96_" class="st0" d="M411.6,482.8c0,5.8,0.1,11.8-0.2,17.7c0,0.9-2.2,2.4-3.4,2.4c-10.5,0.2-21,0-31.5,0.2
		c-3.5,0-3.6-2.1-3.6-4.6c0-10.5-0.1-21-0.1-31.5c0-3.7-0.2-7.2-5.1-7.5c-4.5-0.3-7.5,2.2-8,7.1c-0.4,3.6-0.5,7.4,0.1,10.9
		c0.3,1.6,2.4,3.9,3.9,4.1c3.5,0.5,3.9,2.3,3.8,5.1c-0.1,4.2-0.1,8.3,0,12.5c0.1,2.7-1.1,3.9-3.9,3.8c-13-0.1-26-0.1-39,0
		c-2.6,0-3.7-1-3.6-3.5c0-4.7-0.2-9.3,0.1-14c0.1-1.2,1.8-3.1,3-3.4c3.5-0.8,4.6-2.9,4.7-6.1c0-2.7-0.1-5.3,0-8
		c0.1-3.9-0.5-6.9-5.3-7.5c-1-0.1-2.5-2.2-2.6-3.4c-0.3-4.5,0-9-0.2-13.5c-0.1-2.8,1.2-3.9,3.9-3.8c8.5,0.1,17,0.1,25.5,0
		c2.6,0,3.6,1.1,3.4,3.6c-0.3,3.6-0.5,7.2-0.8,11.3c0.9-0.7,1.4-1,1.5-1.3c5.6-16.7,29.6-22.8,42.7-10.9c4.5,4.1,6.2,9.4,6.4,15.2
		c0.2,5,0.1,10,0.1,15C403.7,480.6,403.7,480.6,411.6,482.8z"/>
	<path id="XMLID_93_" class="st0" d="M246.3,451.1c2.2-0.1,2.9-0.1,3.7-0.2c4.5-0.6,8,0.7,9.5,5.3c1.4,4.4-0.6,9.3-4.6,11.7
		c-5.9,3.4-14.4,2.4-18.4-2.3c-4-4.8-3.7-13.1,0.8-18.5c5.4-6.5,13-8.5,20.8-9.6c9.3-1.3,18.6-1,27.6,2.1c10.1,3.4,14.6,9.3,14.9,20
		c0.2,8.2,0,16.3,0.1,24.5c0,1.5-0.1,3.1,0.4,4.4c0.4,1,1.7,2.4,2.6,2.4s2.5-1.3,2.7-2.3c0.6-2.6,0.4-5.3,1-7.9
		c0.3-1.3,1.7-2.4,2.6-3.6c1,1.1,2.6,2.1,2.9,3.3c2.3,8.6-1.6,19.1-8.3,22.9c-8.3,4.8-21.3,3.5-27.9-3.3c-3.1-3.2-5-3.7-8.4-0.2
		c-7.1,7.4-25.9,8.2-34.2,2c-4.9-3.7-6.2-8.9-5.8-14.6c0.4-5.8,3.8-9.4,9.2-11.3c7.4-2.5,14.8-5,22.2-7.6c2.3-0.8,4.6-2,6.6-3.4
		c3.7-2.7,4.2-6.6,3.3-10.8c-0.8-3.8-3.5-5.9-7.2-6.7C257.1,446.4,252.1,447.1,246.3,451.1z M269.7,481.1c0.2-0.1,0.4-0.2,0.6-0.3
		c-0.8-1.5-1.2-3.8-2.4-4.3c-1.3-0.5-3.5,0.3-4.9,1.2c-2.6,1.8-5.4,4.3-3.5,7.8c1,1.8,3.9,3.7,5.7,3.4c3.8-0.4,4.2-4.1,4.5-7.3
		C269.7,481.5,269.7,481.3,269.7,481.1z"/>
	<path id="XMLID_92_" class="st0" d="M538.1,490.6c0.2-11.1-2.3-9.6,11.6-9.4c1.9,0,4.1,1.8,5.5,3.3c3.1,3.6,6.5,6.5,11.4,5.8
		c1.8-0.2,3.4-2.1,5.1-3.2c-1.2-1.6-2.1-4-3.7-4.7c-5.4-2.2-11.1-3.6-16.5-5.6c-9.3-3.5-14.7-10.5-14.3-18.9
		c0.3-9.5,5.7-15.2,14.3-18.4c9.6-3.7,19.2-3.2,28.8,0c2.8,0.9,4.8,1.4,8-0.7c2.8-1.8,7.7-0.6,11.6-0.4c0.6,0,1.5,1.7,1.5,2.7
		c0.1,5.5,0.1,11,0,16.5c0,0.8-0.6,2-1.3,2.5c-2.8,2-13,0.3-15.2-2.6c-2.7-3.5-5.9-6.2-10.5-5.6c-2,0.3-3.8,2-5.7,3.1
		c1.4,1.6,2.5,4,4.2,4.7c6.2,2.4,12.7,3.9,18.9,6.4c7,2.8,11.1,8.3,11.7,16c0.7,10.6-3.5,17-13.6,20.5c-10.4,3.6-20.9,3.5-31.3-0.3
		c-2.4-0.9-4.2-0.6-6.8,0.4c-3.6,1.4-8.1,0.7-12.2,0.6c-0.6,0-1.6-2-1.7-3.2C537.9,497.4,538.1,494.7,538.1,490.6z"/>
	<path id="XMLID_91_" class="st0" d="M621.3,461.2c-2.9-0.2-5.3-0.4-8.6-0.6c0-5.6-0.1-11.2,0.1-16.8c0-0.8,1.7-1.8,2.8-2.1
		c9.6-2.8,14.6-9.5,16-19.1c0.5-3.6,2-4.8,5.5-4.6c4.8,0.2,9.6,0.1,15.4,0.1c0,5.5,0.2,10.8-0.1,16c-0.2,4.1,1.1,5.6,5.4,5.4
		c11.5-0.5,11.5-0.4,11.5,10.9c0,10.2,0,10.5-10.3,10.1c-5.2-0.2-6.8,1.4-6.3,6.5c0.4,4.8,0.1,9.7,0.1,14.5c0,3.4,1.2,6.2,5,6.2
		c3.5,0,5.4-2.3,5.8-5.7c0.3-2.8,0-5.7,0.5-8.5c0.2-1.2,1.9-2.1,2.9-3.1c0.9,0.9,2.7,1.9,2.7,2.7c-0.6,7.1-0.7,14.3-2.5,21.1
		c-1.6,6.2-6.7,10.2-13.2,10.7c-6.2,0.5-12.7,0.6-18.8-0.3c-8.4-1.2-12.9-7.5-13.3-17.4c-0.3-6.8-0.2-13.7-0.3-20.5
		C621.6,465,621.4,463.3,621.3,461.2z"/>
	<path id="XMLID_90_" class="st0" d="M210.6,449.6c0,8.5,0.1,17,0,25.5c0,3.3,1.3,5.1,4.3,6.9c7,4.2,2.8,11.4,3.2,17.2
		c0.3,4.5-4.1,3.8-7.2,3.8c-11,0-22-0.1-33,0.1c-4.5,0.1-6.5-1.6-6.2-6.2c0.2-2.5,0.2-5,0-7.5c-0.3-3.9,0.2-7,4.7-8.7
		c1.5-0.6,2.9-3.7,3-5.7c0.3-9.6,0.4-19.3,0-29c-0.1-2.1-2.1-4.9-4-6.1c-2.7-1.6-3.7-3.4-3.7-6.4c0.1-18.2-2-15.4,15.1-15.6
		c5.5-0.1,11,0,16.5,0c6.7,0,7.3,0.7,7.3,7.6C210.7,433.7,210.6,441.6,210.6,449.6z"/>
	<path id="XMLID_89_" class="st0" d="M460,449.6c0,8.2,0,16.3,0,24.5c0,3.7,0.8,6.7,5.1,8.2c1.4,0.5,2.7,3.7,2.6,5.5
		c-0.2,5-1.1,9.9-2,14.8c-0.1,0.4-2.1,0.5-3.3,0.5c-11.8,0-23.7-0.1-35.5,0.1c-4.2,0.1-5.7-1.8-5.5-5.7c0.1-3,0.1-6,0-9
		c-0.2-3.5,0.7-5.9,4.3-7.4c1.6-0.7,3-3.6,3.1-5.6c0.3-9.8,0.4-19.7-0.1-29.5c-0.1-2.1-2.5-4.1-3.9-6.2c-1.3-1.9-3.6-3.8-3.7-5.7
		c-0.4-18.6-1.5-15.7,14.3-15.9c6.2-0.1,12.3,0.1,18.5-0.1c4.3-0.1,6,1.8,5.9,6C459.9,432.6,460,441.1,460,449.6L460,449.6z"/>
	<path id="XMLID_88_" class="st0" d="M503.8,503.2c-5.5,0-11,0-16.5,0c-6.2,0-6.7-0.6-6.8-7c0-2.5,0.1-5,0-7.5
		c-0.2-3.6,0.3-6.6,4.6-7.6c1.1-0.3,2.2-1.6,2.7-2.7c2.8-5.9,0.4-14-4.8-17.7c-1.1-0.8-2.1-2.3-2.2-3.6c-0.3-4.3-0.5-8.7,0.1-12.9
		c0.2-1.6,2.7-4,4.2-4c10-0.4,20-0.2,29.9-0.2c3.9,0,4.5,2.7,4.5,5.8c0,9.5,0,19,0,28.4c0,3.6,0.6,6.6,4.7,7.8
		c1,0.3,2.5,1.3,2.5,2.1c0.2,5.6,0.4,11.2-0.1,16.8c-0.1,0.9-3.1,2.1-4.8,2.2C515.8,503.3,509.8,503.2,503.8,503.2z"/>
	<path id="XMLID_87_" class="st0" d="M139.6,359.2c0.1,6.7-2.1,9.3-7.4,10.6c-21.1,5.4-42.3,10.7-63.3,16.2
		c-4.8,1.3-9.2,3.7-13.9,5.4c-1.1,0.4-2.5,0.2-3.8,0.3c-0.1-1.4-0.7-3.2-0.1-4.1c4.9-7.5,4.3-15.1,0.7-22.8
		c-0.6-1.2-0.8-2.6-0.9-3.9c-0.2-4.6,3.2-6.8,7.1-4.3s7.4,5.6,11.3,8.3c4.5,3.1,14,1.2,16.8-3.4c0.5-0.9,0.1-2.9-0.7-3.9
		c-1.7-2.3-4-4.1-5.7-6.3c-1.2-1.6-1.8-3.5-2.7-5.3c2.1,0.4,4.2,0.5,6.2,1.2c4.5,1.6,8.8,3.9,13.4,5.2c6.4,1.8,12.4,1.1,18-3.1
		c1.8-1.3,4.8-2.4,6.8-1.9c5,1.5,10,3.6,14.5,6.3C138,354.9,138.9,358.1,139.6,359.2z"/>
	<path id="XMLID_86_" class="st0" d="M501.7,413c8.3,0,14.3,5.2,14.2,12.2c-0.1,7.1-5.7,11.8-14.5,11.8c-8,0-13.8-5.1-13.7-12.1
		C487.8,417.9,493.6,413,501.7,413z"/>
	<path id="XMLID_85_" class="st1" d="M269.7,481.1c0,0.2,0,0.3,0,0.5c-0.2,3.3-0.7,6.9-4.5,7.3c-1.8,0.2-4.7-1.7-5.7-3.4
		c-1.9-3.5,0.9-6,3.5-7.8c1.3-0.9,3.6-1.8,4.9-1.2c1.2,0.5,1.7,2.8,2.4,4.3C270.1,480.9,269.9,481,269.7,481.1z"/>
</g>
</svg>
