<svg width="23" height="23" viewBox="0 0 23 23" fill="none" xmlns="http://www.w3.org/2000/svg">
<path d="M11.25 0C5.05125 0 0 5.05125 0 11.25C0 17.4488 5.05125 22.5 11.25 22.5C17.4488 22.5 22.5 17.4488 22.5 11.25C22.5 5.05125 17.4488 0 11.25 0ZM11.25 20.25C6.28875 20.25 2.25 16.2112 2.25 11.25C2.25 6.28875 6.28875 2.25 11.25 2.25C16.2112 2.25 20.25 6.28875 20.25 11.25C20.25 16.2112 16.2112 20.25 11.25 20.25Z" fill="#081F5C"/>
<path d="M12.7016 6L7.41406 11.2988L12.7016 16.5975L14.2991 15L10.5866 11.2988L14.2991 7.5975L12.7016 6Z" fill="#081F5C"/>
</svg>
