<svg width="43" height="43" viewBox="0 0 43 43" fill="none" xmlns="http://www.w3.org/2000/svg">
<path d="M21.25 0C9.54125 0 0 9.54125 0 21.25C0 32.9588 9.54125 42.5 21.25 42.5C32.9588 42.5 42.5 32.9588 42.5 21.25C42.5 9.54125 32.9588 0 21.25 0ZM21.25 38.25C11.8787 38.25 4.25 30.6213 4.25 21.25C4.25 11.8787 11.8787 4.25 21.25 4.25C30.6213 4.25 38.25 11.8787 38.25 21.25C38.25 30.6213 30.6213 38.25 21.25 38.25Z" fill="#081F5C"/>
<path d="M15.4922 14.2597L22.5047 21.2509L15.4922 28.2422L18.5097 31.2597L28.4972 21.2509L18.5097 11.2422L15.4922 14.2597Z" fill="#081F5C"/>
</svg>
