<svg width="15" height="16" viewBox="0 0 15 16" fill="none" xmlns="http://www.w3.org/2000/svg">
<path d="M11.25 6.75C11.25 3.99375 9.00625 1.75 6.25 1.75C3.49375 1.75 1.25 3.99375 1.25 6.75C1.25 9.50625 3.49375 11.75 6.25 11.75C7.40625 11.75 8.4625 11.3562 9.3125 10.6937L12.5 13.8813L13.3813 13L10.1937 9.8125C10.85 8.9625 11.25 7.90625 11.25 6.75ZM2.5 6.75C2.5 4.68125 4.18125 3 6.25 3C8.31875 3 10 4.68125 10 6.75C10 8.81875 8.31875 10.5 6.25 10.5C4.18125 10.5 2.5 8.81875 2.5 6.75Z" fill="black"/>
</svg>
