<svg width="23" height="23" viewBox="0 0 23 23" fill="none" xmlns="http://www.w3.org/2000/svg">
<path d="M21.8679 20.9494L16.3938 15.2561C17.8013 13.5829 18.5725 11.4778 18.5725 9.28624C18.5725 4.16589 14.4066 0 9.28624 0C4.16589 0 0 4.16589 0 9.28624C0 14.4066 4.16589 18.5725 9.28624 18.5725C11.2085 18.5725 13.0403 17.9927 14.6064 16.8921L20.1221 22.6286C20.3526 22.868 20.6627 23 20.995 23C21.3095 23 21.6079 22.8801 21.8344 22.6621C22.3156 22.199 22.331 21.431 21.8679 20.9494ZM9.28624 2.4225C13.071 2.4225 16.15 5.50149 16.15 9.28624C16.15 13.071 13.071 16.15 9.28624 16.15C5.50149 16.15 2.4225 13.071 2.4225 9.28624C2.4225 5.50149 5.50149 2.4225 9.28624 2.4225Z" fill="black"/>
</svg>
