<svg width="33" height="33" viewBox="0 0 33 33" fill="none" xmlns="http://www.w3.org/2000/svg">
<path d="M0.726 22.8014C1.1715 23.1149 1.7325 23.1809 2.2275 22.9994L11.5665 19.6666V23.1479L7.2105 26.7777C6.831 27.0911 6.6165 27.5531 6.6165 28.0481V31.3478C6.6165 31.8923 6.8805 32.4038 7.3425 32.7173C7.788 33.0307 8.3655 33.0802 8.877 32.8822L16.5165 29.83L24.156 32.8822C24.354 32.9647 24.5685 32.9977 24.7665 32.9977C25.0965 32.9977 25.41 32.8987 25.6905 32.7173C26.136 32.4038 26.4165 31.8923 26.4165 31.3478V28.0481C26.4165 27.5531 26.202 27.0911 25.8225 26.7777L21.4665 23.1479V19.6666L30.8055 22.9994C31.317 23.1809 31.878 23.0984 32.307 22.8014C32.7525 22.488 33 21.993 33 21.4485V17.3238C33 16.7958 32.736 16.2844 32.307 15.9874L21.45 8.23293V4.94966C21.45 2.22735 19.2225 0 16.5 0C13.7775 0 11.55 2.22735 11.55 4.94966V8.23293L0.693 15.9874C0.264 16.3009 0 16.7958 0 17.3238V21.4485C0 21.993 0.264 22.488 0.693 22.8014H0.726ZM3.333 18.1818L14.19 10.4273C14.619 10.1138 14.883 9.61884 14.883 9.09088V4.96616C14.883 4.05872 15.6255 3.31627 16.533 3.31627C17.4405 3.31627 18.183 4.05872 18.183 4.96616V9.09088C18.183 9.61884 18.447 10.1303 18.876 10.4273L29.733 18.1818V19.1222L20.394 15.7894C19.8825 15.6079 19.3215 15.6904 18.8925 15.9874C18.447 16.3009 18.1995 16.7958 18.1995 17.3403V23.9399C18.1995 24.4348 18.414 24.8968 18.7935 25.2103L23.1495 28.84V28.9225L17.16 26.5302C16.962 26.4477 16.7475 26.4147 16.5495 26.4147C16.3515 26.4147 16.137 26.4477 15.939 26.5302L9.9495 28.9225L14.3055 25.2103C14.685 24.8968 14.8995 24.4348 14.8995 23.9399V17.3403C14.8995 16.7958 14.6355 16.3009 14.2065 15.9874C13.761 15.6739 13.2 15.6079 12.705 15.7894L3.366 19.1222V18.1818H3.333Z" fill="#334EAC"/>
</svg>
