<svg width="24" height="24" viewBox="0 0 24 24" fill="none" xmlns="http://www.w3.org/2000/svg">
<path d="M14.83 7.76001L12 10.59L9.17001 7.76001L7.76001 9.17001L10.59 12L7.76001 14.83L9.17001 16.24L12 13.41L14.83 16.24L16.24 14.83L13.41 12L16.24 9.17001L14.83 7.76001Z" fill="black"/>
<path d="M12 1.99998C9.33 1.99998 6.82 3.03998 4.93 4.92998C3.04 6.81998 2 9.32998 2 12C2 14.67 3.04 17.18 4.93 19.07C6.88 21.02 9.44 21.99 12 21.99C14.56 21.99 17.12 21.02 19.07 19.07C21.02 17.12 22 14.67 22 12C22 9.32998 20.96 6.81998 19.07 4.92998C18.1439 3.99821 17.0422 3.25946 15.8286 2.75651C14.615 2.25356 13.3137 1.99642 12 1.99998ZM17.66 17.66C14.54 20.78 9.47 20.78 6.35 17.66C4.84 16.15 4.01 14.14 4.01 12C4.01 9.85998 4.84 7.84998 6.35 6.33998C7.86 4.82998 9.87 3.99998 12.01 3.99998C14.15 3.99998 16.16 4.82998 17.67 6.33998C19.18 7.84998 20.01 9.85998 20.01 12C20.01 14.14 19.18 16.15 17.67 17.66H17.66Z" fill="black"/>
</svg>
